<svg width="300" height="284" viewBox="0 0 300 284" fill="none" xmlns="http://www.w3.org/2000/svg">
<g clip-path="url(#clip0_48_25)">
<path d="M300 123.51C244.258 105.252 210.888 107.432 185.396 115.586C196.765 94.3066 221.484 74.3944 257.011 53.9922C245.707 46.1102 236.805 39.1966 230.308 31.3146C194.783 55.9227 170.061 81.0118 158.695 104.736C152.362 81.0697 153.91 51.4339 177.83 1.33594H140.067C121.796 57.0761 123.987 90.4458 132.141 115.94C110.861 104.571 90.949 79.8517 70.5491 44.3244C62.6692 55.6355 55.7512 64.5351 47.8714 71.0278C72.4795 106.555 97.5686 131.279 121.293 142.646C97.6242 148.976 67.9907 147.428 17.8972 123.51V161.273C73.6396 179.531 107.009 177.358 132.501 169.198C121.126 190.479 96.4108 210.396 60.8857 230.789C72.1923 238.673 81.0919 245.589 87.5868 253.469C123.114 228.861 147.845 203.776 159.2 180.048C165.533 203.716 163.985 233.345 140.065 283.443H177.828C196.099 227.699 193.908 194.331 185.754 168.839C207.034 180.208 226.946 204.927 247.346 240.455C255.226 229.146 262.144 220.246 270.024 213.751C245.42 178.226 220.329 153.502 196.607 142.136C220.275 135.81 249.909 137.351 300.002 161.273L300 123.51Z" fill="#1F1F1F"/>
<path d="M282.938 123.007C227.195 104.736 193.826 106.927 168.334 115.081C179.689 93.8012 204.422 73.8889 239.949 53.4868C228.643 45.607 219.743 38.6912 213.246 30.8091C177.721 55.4173 152.999 80.5086 141.633 104.231C135.3 80.5664 136.848 50.9285 160.759 0.834961C148.17 0.834961 135.582 0.834961 122.996 0.834961C104.725 56.5751 106.916 89.9448 115.069 115.441C93.7901 104.072 73.8778 79.3507 53.4779 43.8257C45.5981 55.13 38.6801 64.0297 30.8002 70.5268C55.4084 106.05 80.4974 130.776 104.222 142.14C80.562 148.47 50.9285 146.925 0.834961 123.007V160.77C56.5773 179.028 89.947 176.853 115.439 168.694C104.07 189.976 79.3507 209.886 43.8235 230.286C55.13 238.17 64.0297 245.084 70.5246 252.966C106.052 228.358 130.771 203.271 142.14 179.542C148.47 203.213 146.925 232.84 123.005 282.938H160.759C179.03 227.193 176.839 193.828 168.685 168.334C189.965 179.703 209.877 204.424 230.277 239.949C238.157 228.64 245.075 219.741 252.955 213.246C228.358 177.723 203.266 152.997 179.542 141.633C203.211 135.307 232.842 136.845 282.938 160.77V123.007Z" fill="white"/>
<path d="M121.68 283.773L122.25 282.579C147.716 229.246 146.489 200.719 141.891 181.938C130.219 204.821 105.762 229.56 71.0011 253.652L70.3687 254.097L69.8811 253.502C63.4107 245.654 54.5934 238.82 43.3448 230.976L42.2649 230.224L43.4071 229.569C80.2146 208.437 102.634 189.491 113.702 170.119C82.3989 179.567 47.3793 176.902 0.574457 161.563L0 161.376V121.682L1.19345 122.252C54.52 147.713 83.0535 146.491 101.835 141.891C78.9522 130.224 54.2038 105.774 30.1167 71.0011L29.6714 70.371L30.2659 69.8811C38.1212 63.4062 44.9501 54.5912 52.7899 43.347L53.5425 42.2671L54.1993 43.4093C75.3318 80.2169 94.2777 102.636 113.649 113.705C104.204 82.3833 106.876 47.3682 122.212 0.574457L122.402 0H162.095L161.525 1.19567C136.059 54.5222 137.284 83.0513 141.884 101.837C153.558 78.9477 178.006 54.1993 212.774 30.1189L213.406 29.6736L213.892 30.2681C220.362 38.1168 229.179 44.9501 240.428 52.7921L241.508 53.5447L240.366 54.2016C203.556 75.3362 181.139 94.2799 170.073 113.651C201.389 104.204 236.409 106.876 283.198 122.212L283.773 122.402V162.095L282.579 161.525C229.266 136.066 200.726 137.288 181.938 141.884C204.818 153.551 229.56 178.001 253.652 212.772L254.097 213.402L253.505 213.892C245.64 220.369 238.809 229.184 230.978 240.428L230.228 241.508L229.56 240.366C208.425 203.556 189.482 181.139 170.11 170.068C179.569 201.385 176.904 236.402 161.567 283.198L161.378 283.773H121.68ZM124.328 282.103H160.175C170.578 250.243 180.736 208.677 167.908 168.587L167.283 166.628L169.097 167.599C189.192 178.331 208.677 200.842 230.364 238.404C237.772 227.837 244.347 219.438 251.853 213.103C227.36 177.883 202.242 153.431 179.195 142.394L177.158 141.419L179.34 140.835C198.245 135.783 226.988 133.361 282.114 159.456V123.613C250.258 113.21 208.697 103.055 168.601 115.878L166.639 116.503L167.61 114.687C178.34 94.5983 200.848 75.1113 238.404 53.42C227.83 46.0055 219.431 39.4282 213.106 31.9313C177.888 56.4237 153.433 81.5395 142.394 104.591L141.419 106.629L140.835 104.446C135.781 85.5473 133.359 56.7977 159.456 1.66993H123.611C113.208 33.5278 103.048 75.0935 115.875 115.187L116.501 117.147L114.687 116.176C94.5917 105.442 75.1069 82.9333 53.42 45.371C46.0078 55.9383 39.4304 64.3369 31.9313 70.6693C56.4237 105.896 81.5417 130.342 104.591 141.379L106.629 142.356L104.444 142.94C85.5473 148.003 56.8089 150.425 1.66993 124.328V160.175C33.5345 170.576 75.1047 180.736 115.183 167.911L117.145 167.28L116.176 169.1C105.44 189.192 82.9311 208.677 45.371 230.366C55.9427 237.781 64.3414 244.36 70.6693 251.855C105.894 227.362 130.342 202.247 141.381 179.193L142.358 177.158L142.94 179.34C150.439 207.339 144.699 239.076 124.328 282.107V282.103Z" fill="#1F1F1F"/>
</g>
<defs>
<clipPath id="clip0_48_25">
<rect width="300" height="283.773" fill="white"/>
</clipPath>
</defs>
</svg>
