<svg width="300" height="235" viewBox="0 0 300 235" fill="none" xmlns="http://www.w3.org/2000/svg">
<g clip-path="url(#clip0_48_31)">
<path d="M55.133 53.2981C59.2415 39.9507 64.422 26.5947 73.7006 18.8387C78.1382 14.8719 83.9001 12.71 89.8519 12.7787C95.8036 12.8474 101.514 15.1416 105.859 19.2098C116.993 28.9994 121.69 48.9013 137.957 52.1812C150.581 54.7257 161.665 44.3578 173.407 39.0721C183.86 34.368 196.352 33.7207 206.736 38.5801C217.119 43.4395 224.882 54.1163 225.044 65.5735C225.281 82.3492 210.623 100.313 229.241 113.358C239.182 120.323 250.647 117.28 261.612 120.57C273.69 124.188 284.145 131.872 291.203 142.321C312.134 173.82 293.29 215.795 260.174 229.405C237.753 238.618 211.11 235.195 190.433 222.536C202.705 217.734 215.359 212.697 223.287 201.376C227.211 196.018 228.897 189.344 227.989 182.765C224.083 158.492 187.631 158.56 177.117 137.632C170.857 125.174 174.795 106.953 163.103 99.3545C147.898 89.47 125.989 110.858 110.68 101.126C100.692 94.7713 98.8987 77.5795 86.9306 76.1657C85.0367 75.999 83.1287 76.2179 81.3218 76.8093C79.5149 77.4006 77.8466 78.352 76.4177 79.6062C69.9253 84.9972 67.6018 93.0709 62.9754 99.6825C51.5321 116.032 25.3207 119.241 10.2712 106.135C10.9767 106.104 11.6816 106.056 12.3859 105.99C28.7749 104.469 42.162 92.8517 47.6653 77.7107C50.2581 70.5865 52.4781 61.9449 55.133 53.2981Z" fill="#1F1F1F"/>
<path d="M46.5001 41.2144C50.6103 27.8653 55.789 14.511 65.0693 6.75322C69.507 2.78641 75.2688 0.624548 81.2206 0.693238C87.1723 0.761929 92.8828 3.05619 97.2277 7.12436C108.362 16.9157 113.059 36.8159 129.324 40.0958C141.948 42.6385 153.032 32.2672 164.776 26.9814C175.227 22.2774 187.721 21.63 198.105 26.4894C208.488 31.3488 216.249 42.0257 216.403 53.4811C216.641 70.2568 201.983 88.2202 220.601 101.265C230.543 108.233 242.007 105.189 252.972 108.479C265.051 112.096 275.506 119.781 282.563 130.23C303.503 161.726 284.659 203.698 251.541 217.311C229.12 226.524 202.479 223.101 181.8 210.444C194.07 205.64 206.725 200.604 214.652 189.282C218.577 183.925 220.264 177.251 219.356 170.673C215.45 146.398 178.997 146.466 168.484 125.54C162.223 113.082 166.16 94.8593 154.47 87.2604C139.265 77.3776 117.356 98.7658 102.047 89.0315C92.0575 82.6772 90.2657 65.4855 78.2976 64.0717C76.4036 63.9057 74.4957 64.1251 72.6889 64.7167C70.882 65.3083 69.2138 66.2598 67.7847 67.5138C61.2906 72.9032 58.967 80.9786 54.3424 87.5901C42.906 103.939 16.6946 107.149 1.64514 94.0428C2.35175 94.0095 3.05664 93.9605 3.7598 93.8961C20.1488 92.3753 33.5359 80.7576 39.0392 65.6184C41.6268 58.5028 43.8468 49.8594 46.5001 41.2144Z" fill="white"/>
<path d="M224.371 223.153C209.227 223.102 194.387 218.897 181.469 210.995L180.359 210.314L181.567 209.84C193.691 205.096 206.228 200.188 214.124 188.912C217.962 183.697 219.611 177.188 218.719 170.775C216.648 157.878 205.239 152.071 193.171 145.917C183.159 140.816 172.801 135.542 167.914 125.823C165.42 120.862 164.517 115.012 163.643 109.355C162.287 100.566 161.004 92.2648 154.127 87.7972C146.757 83.0138 137.86 85.7948 128.433 88.7294C119.17 91.6157 109.591 94.5987 101.704 89.5822C97.2932 86.777 94.4639 81.9746 91.7278 77.3258C88.1372 71.2373 84.7503 65.4872 78.2251 64.7242C76.4187 64.561 74.5981 64.7686 72.8748 65.3344C71.1516 65.9002 69.5622 66.8122 68.2042 68.0144C64.1147 71.4082 61.6444 76.0225 59.2657 80.4848C57.9541 83.0623 56.4893 85.5589 54.8792 87.9612C51.8883 92.029 48.0781 95.4249 43.6943 97.9298C39.3105 100.435 34.4504 101.993 29.4274 102.505C24.4293 103.221 19.3367 102.881 14.478 101.508C9.6193 100.134 5.10242 97.7578 1.21873 94.5313L0 93.4697L1.61404 93.3903C2.30455 93.3592 2.99907 93.3114 3.69763 93.247C19.1614 91.8159 32.7988 80.8836 38.4315 65.3974C40.0939 60.8263 41.5923 55.6493 43.1787 50.1667C44.0418 47.1647 44.936 44.0937 45.882 41.0175C49.7937 28.3158 55.0812 14.2503 64.655 6.24912C69.1981 2.15583 75.1155 -0.0774223 81.2302 -0.00641385C87.345 0.0645946 93.2089 2.43466 97.6558 6.63235C101.806 10.7058 105.397 15.3126 108.334 20.3319C113.789 28.7387 119.431 37.4218 129.452 39.4501C138.255 41.2195 146.181 36.6104 154.569 31.7269C157.789 29.7792 161.108 27.9982 164.512 26.391C169.8 23.9143 175.555 22.5899 181.394 22.5057C187.233 22.4214 193.023 23.5793 198.381 25.9025C209.394 31.0484 216.9 42.1293 217.061 53.4725C216.87 58.9309 215.962 64.3407 214.362 69.5628C211.378 81.1184 208.56 92.0334 220.983 100.737C226.938 104.91 233.389 105.398 240.218 105.916C244.592 106.092 248.933 106.744 253.165 107.861C265.373 111.547 275.944 119.317 283.105 129.869C287.592 136.661 290.488 144.377 291.577 152.443C292.666 160.51 291.92 168.718 289.394 176.456C286.54 185.697 281.692 194.199 275.193 201.361C268.693 208.524 260.701 214.173 251.781 217.91C243.072 221.423 233.762 223.204 224.371 223.153ZM183.269 210.566C204.314 222.985 230.259 225.359 251.296 216.712C260.039 213.048 267.873 207.511 274.243 200.49C280.614 193.469 285.366 185.135 288.165 176.078C290.632 168.523 291.362 160.509 290.301 152.632C289.239 144.756 286.413 137.221 282.033 130.589C275.04 120.285 264.716 112.698 252.794 109.099C248.65 108.01 244.401 107.374 240.12 107.2C233.417 106.693 226.482 106.165 220.239 101.79C207.083 92.5738 210.143 80.7075 213.106 69.2348C214.673 64.1227 215.567 58.8279 215.764 53.4845C215.61 42.6264 208.403 32.01 197.83 27.0729C192.642 24.8264 187.036 23.7088 181.383 23.7942C175.73 23.8797 170.16 25.1661 165.042 27.5683C161.679 29.1595 158.401 30.9226 155.219 32.8507C146.99 37.641 138.475 42.5971 129.196 40.7206C118.642 38.5956 112.85 29.6726 107.249 21.0414C104.372 16.1226 100.859 11.6051 96.7995 7.60596C92.578 3.62511 87.0131 1.37847 81.211 1.31258C75.4089 1.24669 69.7945 3.36639 65.4836 7.25035C56.1722 15.034 50.9745 28.8837 47.1267 41.406C46.1841 44.4683 45.2951 47.5307 44.4285 50.5257C42.8352 56.029 41.3213 61.2285 39.6554 65.8393C33.8466 81.7933 19.7846 93.0588 3.81847 94.54C3.64584 94.5572 3.48703 94.5693 3.31958 94.5831C10.7569 100.129 20.0835 102.514 29.2703 101.219C34.1127 100.729 38.7987 99.2297 43.0266 96.8185C47.2544 94.4072 50.9304 91.1372 53.8176 87.2189C55.401 84.8586 56.8421 82.4058 58.1332 79.8737C60.5759 75.3009 63.1014 70.5727 67.3859 67.0166C68.8779 65.6991 70.6239 64.7012 72.5162 64.0843C74.4086 63.4673 76.4073 63.2445 78.3891 63.4295C85.5513 64.2771 89.2645 70.5761 92.8533 76.6681C95.5135 81.1822 98.2634 85.8483 102.41 88.486C109.798 93.1831 118.668 90.4177 128.062 87.49C137.354 84.5933 146.97 81.6034 154.838 86.7183C162.202 91.5035 163.588 100.482 164.929 109.16C165.793 114.716 166.676 120.463 169.072 125.245C173.764 134.582 183.932 139.757 193.758 144.765C205.591 150.788 217.825 157.022 219.997 170.564C220.943 177.31 219.217 184.158 215.186 189.649C207.35 200.849 194.688 206.087 183.269 210.566Z" fill="#1F1F1F"/>
</g>
<defs>
<clipPath id="clip0_48_31">
<rect width="300" height="234.611" fill="white"/>
</clipPath>
</defs>
</svg>
